# xmcd
# Track frame offsets:
# 150
# 21990
# 37170
# 53810
# 66270
# 89280
# 104160
# 121450
# 134360
# 146390
#
# Disc length: 2275 seconds
# Revision: 0
# Processed by: cddbd v1.5.2PL0 Copyright (c) Steve Scherf et al.
# Submitted via: VisiTrax 2.10.3.257 - For more info visit www.synapsa.com
#
DISCID=9608e10a
DTITLE=Dolly Parton - New Harvest - First Gathering
DYEAR=1977
DGENRE=
TTITLE0=Light Of A Clear Blue Morning
TTITLE1=Applejack
TTITLE2=My Girl (My Love)
TTITLE3=Holdin'  On To You
TTITLE4=You Are
TTITLE5=How Does It Feel
TTITLE6=Where Beauty Lives IN Memory
TTITLE7=(Your Love Has Lifted Me) Higher And Higher
TTITLE8=Getting In My Way
TTITLE9=There
EXTD=
EXTT0=
EXTT1=
EXTT2=
EXTT3=
EXTT4=
EXTT5=
EXTT6=
EXTT7=
EXTT8=
EXTT9=
PLAYORDER=
